<svg id="visual" viewBox="0 0 900 600" width="900" height="600" xmlns="http://www.w3.org/2000/svg" xmlns:xlink="http://www.w3.org/1999/xlink" version="1.1"><rect x="0" y="0" width="900" height="600" fill="#c3cedf"></rect><path d="M0 483L21.5 485.5C43 488 86 493 128.8 497.3C171.7 501.7 214.3 505.3 257.2 493.3C300 481.3 343 453.7 385.8 444.7C428.7 435.7 471.3 445.3 514.2 460.3C557 475.3 600 495.7 642.8 503C685.7 510.3 728.3 504.7 771.2 498.5C814 492.3 857 485.7 878.5 482.3L900 479L900 601L878.5 601C857 601 814 601 771.2 601C728.3 601 685.7 601 642.8 601C600 601 557 601 514.2 601C471.3 601 428.7 601 385.8 601C343 601 300 601 257.2 601C214.3 601 171.7 601 128.8 601C86 601 43 601 21.5 601L0 601Z" fill="#2d394b" stroke-linecap="round" stroke-linejoin="miter"></path></svg>